<?xml version="1.0" standalone="no"?><!DOCTYPE svg PUBLIC "-//W3C//DTD SVG 1.1//EN" "http://www.w3.org/Graphics/SVG/1.1/DTD/svg11.dtd"><svg t="1609232649842" class="icon" viewBox="0 0 1024 1024" version="1.1" xmlns="http://www.w3.org/2000/svg" p-id="1098" data-darkreader-inline-fill="" width="200" height="200" xmlns:xlink="http://www.w3.org/1999/xlink"><defs><style type="text/css"></style></defs><path d="M32 256h832c17.68 0 32-14.32 32-32V96c0-17.68-14.32-32-32-32H32C14.32 64 0 78.32 0 96v128c0 17.68 14.32 32 32 32z m960 160H160c-17.68 0-32 14.32-32 32v128c0 17.68 14.32 32 32 32h832c17.68 0 32-14.32 32-32v-128c0-17.68-14.32-32-32-32z m-128 352H32c-17.68 0-32 14.32-32 32v128c0 17.68 14.32 32 32 32h832c17.68 0 32-14.32 32-32v-128c0-17.68-14.32-32-32-32z" fill="#409EC4" p-id="1099" data-darkreader-inline-fill="" style="--darkreader-inline-fill:#0e78af;"></path></svg>